<?xml version="1.0" encoding="UTF-8"?>
<svg id="_レイヤー_2" data-name="レイヤー 2" xmlns="http://www.w3.org/2000/svg" viewBox="0 0 340.0206169 86.2067967">
  <defs>
    <style>
      .cls-1 {
        stroke-width: 0px;
      }
    </style>
  </defs>
  <g id="_レイヤー_1-2" data-name="レイヤー 1">
    <g>
      <g>
        <g>
          <path class="cls-1" d="m146.0728629,22.872202c2.2856445.6885986,3.4428711,1.5974121,3.4428711,2.7542725,0,.6610107-.2758789.9639893-.7714844.9639893-.4130859,0-.7158203-.2479248-.8813477-.7988281-.2753906-.8813477-.9638672-1.7075195-2.0380859-2.4511719l.2480469-.4682617Zm6.9956055-.7436523l-3.2226562,10.6313477c-.1650391.605835-.2475586,1.1567383-.2475586,1.5698242,0,.3305664.0273438.7160645.1376953,1.1567383.2202148.8538818.3579102,1.5699463.3579102,2.2033691,0,1.0742188-.4130859,1.625-1.1567383,1.625-.6333008,0-.9365234-.2753906-.9365234-.8261719,0-.1102295.0825195-.6335449.2480469-1.5423584.0551758-.413208.1098633-.8538818.1098633-1.3771973,0-1.4871826-.7431641-2.3410645-2.2304688-2.5614014v-.6610107c.4130859.0826416.7436523.1102295,1.019043.1102295.7158203,0,1.2666016-.4406738,1.7075195-1.2945557,1.2119141-2.4787598,2.3959961-5.6185303,3.6079102-9.4468994l.605957.4130859Zm-5.2329102-4.5994873c2.4233398.605957,3.6352539,1.4597168,3.6352539,2.5889893,0,.6884766-.3027344.9914551-.8813477.9914551-.3852539,0-.6333008-.192749-.7436523-.5783691-.3300781-.9914551-1.1015625-1.8453369-2.2856445-2.5063477l.2753906-.4957275Zm12.6416016,3.2224121v1.9003906h3.25l1.046875-1.2393799c.4404297.3305664.9360352.7987061,1.4594727,1.4046631l-.1928711.4682617h-5.5634766v2.1757812h4.7924805l1.184082-1.3770752c.1655273.1652832.3583984.3304443.5512695.4957275.3027344.2753906.6333008.605957.9912109.9915771l-.2480469.4957275h-15.175293l-.2480469-.605957h6.6928711v-2.1757812h-4.902832l-.2475586-.6335449h5.1503906v-1.9003906h-5.9765625l-.2480469-.6334229h6.2246094v-2.9746094c1.7075195,0,2.5610352.2479248,2.5610352.6335449,0,.2203369-.3852539.4681396-1.1015625.6884766v1.6525879h4.2138672l1.1293945-1.432251c.4682617.4406738.9916992.9364014,1.5698242,1.5699463l-.2202148.4957275h-6.6928711Zm3.0024414,7.2160645l.9638672-1.0740967c1.019043.7711182,1.5419922,1.2668457,1.5419922,1.5147705,0,.1101074-.0546875.1652832-.1923828.2479248l-.6611328.4406738v8.1523438c0,1.2945557-.8540039,1.9279785-2.4790039,1.9555664.027832-.4957275-.2475586-.8262939-.8813477-1.0466309-.4682617-.192749-1.2392578-.3580322-2.2583008-.4682617v-.6884766c1.2392578.1101074,2.2583008.192749,3.0844727.192749.6889648,0,1.046875-.2478027,1.046875-.7436523v-2.2860107h-7.7944336v5.2055664h-1.4321289v-12.1185303c.1376953.0550537.3305664.1101074.5234375.192749.3027344.1101074.6606445.3029785,1.1015625.5233154h7.4365234Zm.1650391,2.6715088v-2.0655518h-7.7944336v2.0655518h7.7944336Zm0,.6335449h-7.7944336v2.2584229h7.7944336v-2.2584229Z"/>
          <path class="cls-1" d="m178.812609,22.6518651l-2.3964844,10.135498q0,.0275879-.0273438.0826416v.0826416c-.1650391.6334229-.2480469,1.1567383-.2480469,1.5423584,0,.2479248.0830078.7712402.2480469,1.5147705.1660156.9365234.2480469,1.5423584.2480469,1.8729248,0,.9364014-.3027344,1.4321289-.9638672,1.4321289-.605957,0-.9086914-.2753906-.9086914-.8261719,0-.0275879,0-.1652832.0273438-.4406738.0551758-.3581543.0551758-.6885986.1103516-.9639893.0551758-.5233154.0824953-1.0466309.0824953-1.5699463,0-1.4873047-.6059328-2.3134766-1.8451906-2.5338135v-.6335449c.3027344.0550537.5507812.0826416.7709961.0826416.6884766,0,1.1567383-.3304443,1.4321289-.9639893.8540039-2.010498,1.7905273-5.067749,2.7817383-9.1715088l.6884766.3580322Zm-5.3427734.6610107c1.7075195.6610107,2.5615234,1.4597168,2.5615234,2.3962402,0,.5783691-.2758789.8537598-.7988281.8537598-.3305664,0-.5786133-.2479248-.7163086-.7987061-.1650391-.7712402-.605957-1.432251-1.3217773-1.9830322l.2753906-.4682617Zm.9638672-5.480835c1.0742188.2753906,1.8730469.6885986,2.4511719,1.2944336.3574219.3856201.5234375.7436523.5234375,1.1016846,0,.3305664-.1660156.605957-.46875.7987061-.1367188.0826416-.2480469.1102295-.3301024.1102295-.4130616,0-.6332765-.2753906-.7709718-.7712402-.2207031-.8261719-.7714844-1.5147705-1.652832-2.0931396l.2480469-.4406738Zm10.6308594,11.7879639h-1.6796875v1.7902832c2.4511719,1.1292725,3.6630859,2.2033691,3.6630859,3.1948242,0,.5784912-.2480469.8538818-.7705078.8538818-.3310547,0-.6064453-.2753906-.8271484-.7987061-.3857422-.8813477-1.0732422-1.7076416-2.0654297-2.5063477v7.2160645h-1.3222656v-7.105957c-1.0195312,1.9279785-2.4511719,3.7182617-4.2685547,5.4257812l-.4404297-.4681396c2.0097656-2.1759033,3.5253906-4.7097168,4.6269531-7.6016846h-1.3769531v1.2669678h-1.2675781v-7.4364014c.1376953.0826416.578125.3029785,1.3496094.6885986h1.3769531v-2.8919678h-3.6904297l-.2480469-.6334229h3.9384766v-3.4978027c1.515625.0274658,2.2587891.2203369,2.2587891.5233154,0,.192749-.3037109.4130859-.9365234.6608887v2.3135986h1.7353516l1.0458984-1.4046631c.3867188.3856201.7988281.8262939,1.2128906,1.3496094l.2197266.2753906-.2197266.4130859h-3.9941406v2.8919678h1.4873047l.7988281-1.0466309c.8818359.7436523,1.2939453,1.1843262,1.2939453,1.3770752,0,.1102295-.0546875.1652832-.1650391.2479248l-.4951172.3580322v5.6461182h-1.2402344v-1.1016846Zm-3.0019531-4.8474121h-1.4589844v4.2415771h1.4589844v-4.2415771Zm3.0019531,4.2415771v-4.2415771h-1.7070312v4.2415771h1.7070312Zm.3310547,10.0803223c1.4873047-.9088135,2.7822266-2.1757812,3.8828125-3.9108887,1.046875.605835,1.5976562,1.0465088,1.5976562,1.3220215,0,.192749-.2197266.2753906-.6611328.2753906-.109375,0-.1923828-.0275879-.3027344-.0275879-.9912109,1.1292725-2.3691406,2.0656738-4.1865234,2.8369141l-.3300781-.4958496Zm4.6542969-16.8282471c.1650391-1.0465088.2480469-2.0380859.3310547-3.0020752h-3.4980469l-.2753906-.6334229h6.9130859l1.15625-1.4873047c.6064453.605957,1.1015625,1.1567383,1.4873047,1.6525879l-.2480469.4681396h-3.828125c-.3857422,1.1016846-.8261719,2.0932617-1.3222656,3.0020752h2.4238281l.8544922-1.0740967c.9365234.7712402,1.4316406,1.2669678,1.4316406,1.4597168,0,.1102295-.0820312.1928711-.2197266.2755127l-.5791016.4130859v11.5952148h-1.3496094v-1.019043h-3.9658203v1.0740967h-1.3222656v-13.385376c.3310547.1651611.7988281.385498,1.4052734.6608887h.6054688Zm-.6884766.605957v2.8919678h3.9658203v-2.8919678h-3.9658203Zm3.9658203,6.5550537v-3.0571289h-3.9658203v3.0571289h3.9658203Zm0,3.855835v-3.2498779h-3.9658203v3.2498779h3.9658203Zm-1.3496094,1.8729248c2.5615234.9639893,3.8564453,1.9830322,3.8564453,3.0571289,0,.5784912-.2753906.8538818-.7988281.8538818-.2753906,0-.550806-.2203369-.7714844-.6335449-.5234375-1.0465088-1.4043216-1.9830322-2.5615234-2.836792l.2753906-.4406738Z"/>
        </g>
        <g>
          <path class="cls-1" d="m16.3502572,26.8133362h2.6490525c.8666303,0,1.9635637.1488713,1.9635637,1.1564145v9.0719659s-2.9747795,1.0777729-8.3635183,1.0777729c-5.3825621,0-12.5993551-2.919315-12.5993551-11.0101755,0-8.0642799,7.5127709-11.2279991,13.0750879-11.2279991,2.4922397,0,5.6214369.1483671,5.6214369,1.5295552v2.7019957c-2.1154604-1.6993689-2.9679725-2.0010021-6.1789796-2.0010021-3.2098726,0-8.9525748,2.0810472-8.9525748,8.8078461,0,6.7349003,7.7079046,10.7350137,14.1060944,8.204075v-5.157318c0-1.0807814-.0627755-3.1531308-1.3208076-3.1531308Z"/>
          <path class="cls-1" d="m56.6294695,37.5797207h6.8087481c-1.8859136-.6912873-2.6583805-2.9162897-3.2757995-4.5381174-.6388483-1.615777-5.5623168-13.3841752-6.1149434-15.0158352-.5435505-1.6083398-1.3301357-1.6083398-1.9524708-1.6083398h-3.915152c1.8870481.6166626.8585662,1.9295287.5489709,2.8435558-.3126172.9319269-6.8918223,16.9356577-6.8918223,16.9356577-2.27429-.6112422-7.9726174-8.8571676-7.9726174-8.8571676,7.5989895-2.1542854,6.4191117-10.9220459-1.0013835-10.9220459h-8.5290289c1.713596.3723674,1.5584219,2.1560501,1.5584219,3.5305573v14.5621621c0,2.0016324-.6283858,2.5315689-1.63166,3.069573h6.2430157c-1.713596-.7645255-1.2599229-2.5383759-1.2599229-3.3736184v-15.7082571h3.3736185c1.7941453,0,3.1230205,2.1579409,3.1230205,3.6264854,0,2.3703442-1.8760813,3.3003633-3.7539274,3.9964577-1.8724257.6838501-.856798,2.2257587,0,3.4665212.8764626,1.2267703,3.3717277,4.6877283,4.8556509,6.3804158,1.4919875,1.6869983,2.8005678,1.6119954,3.5243774,1.6119954h5.6337902c-2.1844092-.6912873-1.0218044-2.3795462-.7171253-3.2190746.3127399-.8654958,1.7320001-4.473594,1.7320001-4.473594h8.4361225s1.0199136,2.6116309,1.9573869,4.9258804c.9416332,2.3180312.2368579,2.6177907-.7792703,2.7667881Zm-8.7617305-10.1527472l3.2209654-8.2441437,3.4246708,8.2441437h-6.6456362Z"/>
          <path class="cls-1" d="m125.1165846,37.5797207h6.819209c-1.8791011-.6912873-2.6626664-2.9162897-3.2750431-4.5381174-.6272458-1.615777-5.5605521-13.3841752-6.1052371-15.0158352-.5521223-1.6083398-1.3301357-1.6083398-1.9585214-1.6083398h-3.9072054c1.8809922.6166626.8580533,1.9295287.5508617,2.8435558-.3225808.9319269-6.886281,16.9356577-6.886281,16.9356577-.4406894.9983581-1.0833194,1.0223086-1.4740909,1.3830789h5.6176551c-2.1905893-.6912873-1.009451-2.3795462-.7071703-3.2190746.3015243-.8654958,1.7185121-4.473594,1.7185121-4.473594h8.4588159s1.0205438,2.6116309,1.952975,4.9258804c.92512,2.3180312.2252608,2.6177907-.8044796,2.7667881Zm-8.7406758-10.1527472l3.1956231-8.2441437,3.4530333,8.2441437h-6.6486564Z"/>
          <path class="cls-1" d="m101.0522414,37.9803245c.7841901-.70654,1.4913604-1.2407625,1.4913604-3.7052867v-14.5473969c0-1.1541625-.0602496-2.4614821-1.4913604-2.9378452h6.034394c-.622209.5465758-1.3651791,1.2359724-1.3651791,2.7790155v14.7062266c0,1.3103618-.2855153,3.238756,1.4606029,3.7052867h-6.1298179Z"/>
          <path class="cls-1" d="m68.6662358,21.3432919s-.0768937,11.6206614-.0768937,12.9317459c0,1.3103618.1723176,3.238756,1.8871741,3.7052867h-5.7187515c.788476-.70654,1.4157272-1.2407625,1.4157272-3.7052867,0-2.4564232.1464763-13.4020583.1464763-14.5473969,0-1.1541625-.1464763-2.4614821-1.5622035-2.9378452h4.3879855l13.132947,16.2518076v-13.2432454c0-.8457051.1643805-2.4619864-1.6334248-3.0781447h5.8651017c-.7066617.5459456-1.7369162.7662903-1.7369162,3.0074277v19.1021704s-1.6200629.2966082-4.2852504-2.8620859c-2.6644312-3.1513829-11.8219717-14.6244335-11.8219717-14.6244335Z"/>
          <path class="cls-1" d="m106.0440319,54.3583135c-17.2040294-14.2668145-23.7781923-31.0633072-.2523627-53.9932733.731756-.7047929,1.4371567-.2837681.856798.373628-10.3214092,11.5936855-21.8073175,30.1621377-.2401354,52.9062983.3398451.3637956.2043357,1.0980679-.3642999.713347Z"/>
        </g>
        <g>
          <path class="cls-1" d="m223.6807731,25.5450536v-4.7189941c1.4804688.069458,2.1972656.2545166,2.1972656.5551758,0,.1850586-.3007812.3933105-.9248047.6246338v3.5391846h5.6445312l.8554688-1.0639648c.8789062.717041,1.3417969,1.2028809,1.3417969,1.3879395,0,.1156006-.0693359.1850586-.1855469.2543945l-.578125.3469238v7.2404785h-1.2490234v-1.4111328h-5.8291016v6.9396973h-1.2724609v-6.9396973h-5.5976562v1.7119141h-1.25v-9.1835938c.3935547.1618652.8798828.3933105,1.4345703.717041h5.4130859Zm-5.5976562.5090332v5.7368164h5.5976562v-5.7368164h-5.5976562Zm12.6992188,5.7368164v-5.7368164h-5.8291016v5.7368164h5.8291016Z"/>
          <path class="cls-1" d="m237.3946403,25.3831883c1.9208984.5783691,2.8916016,1.3416748,2.8916016,2.3132324,0,.5551758-.2304688.8095703-.6474609.8095703-.3466797,0-.6015625-.2081299-.7402344-.6707764-.2314453-.7402344-.8095703-1.4342041-1.7119141-2.0587158l.2080078-.3933105Zm5.8759766-.6245117l-2.7060547,8.9289551c-.1386719.5090332-.2089844.9716797-.2089844,1.3186035,0,.2775879.0234375.6014404.1162109.9715576.1845703.7171631.3007812,1.3184814.3007812,1.8505859,0,.9022217-.3466797,1.3648682-.9716797,1.3648682-.5322266,0-.7861328-.2314453-.7861328-.6940918,0-.0925293.0693359-.5319824.2080078-1.2954102.0458984-.3469238.0927734-.717041.0927734-1.1564941,0-1.2492676-.625-1.9663086-1.8740234-2.1513672v-.5551758c.3466797.0693359.6240234.0925293.8554688.0925293.6015625,0,1.0644531-.3701172,1.4345703-1.0871582,1.0175781-2.0820312,2.0126953-4.7189941,3.0302734-7.9344482l.5087891.3470459Zm-4.3955078-3.8631592c2.0361328.5089111,3.0537109,1.2259521,3.0537109,2.1744385,0,.5783691-.2539062.8327637-.7402344.8327637-.3232422,0-.5322266-.1618652-.6240234-.4858398-.2783203-.8327637-.9257812-1.5498047-1.9199219-2.1049805l.2304688-.4163818Zm10.6181641,2.7064209v1.5961914h2.7294922l.8789062-1.0410156c.3701172.2775879.7871094.6708984,1.2265625,1.1798096l-.1621094.3931885h-4.6728516v1.8275146h4.0253906l.9941406-1.1566162c.1386719.1387939.3007812.2775879.4628906.4163818.2548828.2313232.5322266.5089111.8330078.8327637l-.2080078.4163818h-12.7460938l-.2080078-.5089111h5.6210938v-1.8275146h-4.1181641l-.2080078-.5319824h4.3261719v-1.5961914h-5.0205078l-.2080078-.5319824h5.2285156v-2.498291c1.4335938,0,2.1513672.208252,2.1513672.5319824,0,.1850586-.3242188.3933105-.9257812.5783691v1.3879395h3.5390625l.9482422-1.2028809c.3935547.3701172.8330078.786499,1.3193359,1.3186035l-.1855469.4162598h-5.6210938Zm2.5214844,6.060791l.8095703-.9022217c.8554688.6477051,1.2958984,1.0640869,1.2958984,1.2723389,0,.0925293-.046875.1386719-.1621094.2081299l-.5556641.3701172v6.847168c0,1.0872803-.7167969,1.6192627-2.0820312,1.6424561.0234375-.4165039-.2080078-.6940918-.7402344-.8791504-.3925781-.1618652-1.0410156-.3006592-1.8964844-.3931885v-.5782471c1.0410156.0925293,1.8964844.1618652,2.5908203.1618652.578125,0,.8789062-.208252.8789062-.6245117v-1.9200439h-6.5458984v4.3719482h-1.203125v-10.1782227c.1152344.0463867.2773438.0925293.4394531.1619873.2539062.0925293.5546875.2545166.9248047.4395752h6.2460938Zm.1386719,2.2437744v-1.7349854h-6.5458984v1.7349854h6.5458984Zm0,.5321045h-6.5458984v1.8967285h6.5458984v-1.8967285Z"/>
          <path class="cls-1" d="m273.4786247,26.2391454l.7636719-.9716797c.9013672.7171631,1.3642578,1.1798096,1.3642578,1.3648682,0,.0925293-.0458984.1850586-.1621094.2081299l-.6015625.3933105v6.0144043h-1.2021484v-1.5036621h-10.2246094c-.3007812,3.2385254-1.5966797,5.7137451-3.8867188,7.4255371l-.3466797-.3933105c2.0361328-2.0124512,3.0537109-4.927124,3.0537109-8.7670898v-4.4182129c.5087891.2081299.9716797.4162598,1.4111328.6477051h9.8310547Zm.9248047-3.6086426l1.1103516-1.4343262c.4863281.3933105.9716797.9022217,1.5039062,1.5036621l-.2314453.4394531h-16.6552734l-.1621094-.5087891h14.4345703Zm-10.8945312,4.140625v3.215332c0,.3007812,0,.7171631-.046875,1.2260742h10.1787109v-4.4414062h-10.1318359Z"/>
          <path class="cls-1" d="m292.3028434,22.1214696h1.0644531v9.9006348h2.1513672v.9022217h-2.1513672v1.6885986c0,.6708984.1621094,1.0872803.4628906,1.2723389.2314453.1387939.6708984.2313232,1.3417969.2545166v.4626465h-4.8583984v-.4626465c.8798828-.0463867,1.4345703-.208252,1.6201172-.4858398.1386719-.1618652.2080078-.5089111.2080078-1.0410156v-1.6885986h-5.5751953v-.786499l5.7363281-10.0163574Zm-.1611328,1.8969727l-4.6035156,8.0036621h4.6035156v-8.0036621Z"/>
          <path class="cls-1" d="m311.9874137,23.6713963v13.34729c0,.9484863-.3701172,1.5036621-1.0878906,1.6887207-.3466797.0925293-.7626953.1618652-1.2021484.1618652,0-.4394531-.2548828-.717041-.7636719-.925293-.3242188-.1386719-1.0175781-.3006592-2.0126953-.4394531l-.578125-.0693359v-.5783691c1.4570312.1618652,2.6142578.2313232,3.515625.2313232.5322266,0,.7871094-.2081299.7871094-.6246338v-12.7921143h-7.9804688l-.2548828-.5321045h14.828125l1.203125-1.5266113c.7626953.6245117,1.3183594,1.2028809,1.6650391,1.642334l-.2314453.4163818h-7.8876953Z"/>
          <path class="cls-1" d="m337.8926872,22.3529149l.8320312-1.0410156c.8564453.6939697,1.2958984,1.1335449,1.2958984,1.3416748,0,.1156006-.046875.2081299-.1621094.2775879l-.5322266.3701172v15.5679932h-1.2949219v-1.6655273h-9.8320312v1.6655273h-1.2714844v-17.2335205c.7402344.3470459,1.2490234.5782471,1.5263672.7171631h9.4384766Zm-9.6933594.5087891v4.1407471h9.8320312v-4.1407471h-9.8320312Zm9.8320312,8.8597412v-4.210083h-9.8320312v4.210083h9.8320312Zm0,4.9503174v-4.4414062h-9.8320312v4.4414062h9.8320312Z"/>
        </g>
      </g>
      <g>
        <path class="cls-1" d="m66.4576286,80.6856786c-1.0463867,1.5806885-2.4042969,2.9609375-4.0961914,4.1408691l-.355957-.4007568c1.9589844-1.6696777,3.4057617-3.5174561,4.3188477-5.5656738h-3.6064453l-.2006836-.5119629h3.9404297v-2.3598633c1.2470703.0667725,1.8925781.2226562,1.8925781.4451904,0,.133667-.2670898.2894287-.7792969.4675293v1.4471436h2.0258789l.8461914-1.1131592c.4448242.4675293.8237305.8681641,1.112793,1.2689209l-.2226562.3562012h-3.762207v.8015137c2.2485352.8237305,3.3618164,1.6696777,3.3618164,2.6269531,0,.4451904-.2006836.6678467-.6010742.6678467-.2006836,0-.4008789-.1557617-.6010742-.4897461-.512207-.8237305-1.2021484-1.5806885-2.159668-2.2039795v5.788208h-1.1132812v-5.3652344Zm1.0908203-5.5656738c.512207-1.1799316.890625-2.3820801,1.1801758-3.6064453,1.1132812.4006348,1.6694336.7346191,1.6694336.9794922,0,.1558838-.2446289.244873-.8012695.2670898-.2895508.6234131-.8012695,1.4025879-1.4472656,2.3598633h1.9150391l.8232422-1.1575928c.4008789.4229736.7348633.8459473,1.0244141,1.2689209l-.2226562.4007568h-9.2167969l-.2001953-.512085h5.2758789Zm-1.0908203-4.2966309v-2.7382812c1.269043.0444336,1.9145508.2226562,1.9145508.4897461,0,.1558838-.2670898.3339844-.8012695.512085v1.7364502h2.0258789l.8012695-1.2021484c.4008789.378418.7348633.7568359.9799805,1.1130371l.1557617.2004395-.2451172.378418h-8.3261719l-.2226562-.4897461h3.7177734Zm-2.4042969.756958c1.3803711.8236084,2.0927734,1.7142334,2.0927734,2.6046143,0,.512085-.2446289.7347412-.7124023.7347412-.3115234,0-.4897461-.2226562-.5341797-.7124023-.0668945-.7347412-.4228516-1.513916-1.1357422-2.3153076l.2895508-.3116455Zm9.5283203,4.1630859v.3338623c0,2.1149902-.2001953,3.9182129-.6010742,5.3875732-.4897461,1.7587891-1.3579102,3.2503662-2.6044922,4.5192871l-.4008789-.3338623c1.0688477-1.5361328,1.78125-3.2949219,2.1152344-5.2540283.222168-1.380249.3334961-2.9831543.3334961-4.8309326v-5.6992188c.534668.1781006.9575195.378418,1.3134766.5343018,1.5810547-.4898682,2.8945312-1.135376,4.0073242-2.0036621.890625.5788574,1.3583984,1.0018311,1.3583984,1.2244873,0,.1335449-.1113281.2003174-.3564453.2003174-.1782227,0-.355957-.0222168-.5786133-.0889893-1.3359375.4897461-2.8276367.9127197-4.5864258,1.2243652v4.2966309h4.5415039l.9350586-1.3134766c.512207.4453125.9350586.9128418,1.269043,1.3803711l-.2001953.4229736h-2.7163086v10.0626221h-1.1572266v-10.0626221h-2.671875Z"/>
        <path class="cls-1" d="m94.8570426,73.7619725v.8237305c0,1.6029053-.5566406,2.8496094-1.6474609,3.7401123,1.0244141.1113281,1.5361328.2894287,1.5361328.5343018,0,.133667-.2446289.2894287-.734375.4453125v.8013916h6.0551758l1.0239258-1.0686035c.4233398.2894287.890625.6901855,1.3803711,1.2021484l-.2226562.3562012h-7.7915039c.0444336.0445557.0664062.0668945.1108398.0891113,2.0263672,1.6029053,4.809082,2.6269531,8.081543,3.3171387-.4228516.3562012-.7568359.756958-.9125977,1.2243652-3.2729492-1.0462646-5.8549805-2.515625-7.7250977-4.3411865v5.164917h-1.1577148v-4.4747314c-2.137207,1.8477783-4.8754883,3.1835938-8.2373047,4.029541l-.2226562-.4897461c3.3173828-1.0463867,5.9663086-2.5825195,7.8808594-4.5194092h-7.4799805l-.2226562-.4897461h8.2817383v-1.5137939c-.5341797.3562012-1.2246094.6678467-2.0258789.9349365l-.2226562-.4229736c2.0927734-.9572754,3.1391602-2.4488525,3.1391602-4.4969482v-1.8479004c.2446289.1113281.6230469.2672119,1.1352539.512085h3.2949219l.5566406-.6010742c.7124023.4897461,1.0683594.8237305,1.0683594.9796143,0,.0667725-.0444336.1112061-.1557617.1779785l-.4008789.2672119v3.1390381c0,.3339844.2451172.4897461.7124023.4897461.4228516,0,.6904297-.1335449.7792745-.4229736.1557841-.4229736.2671122-1.1131592.3115458-2.0482178l.512207.1782227c-.0224609.1779785-.0224609.3562012-.0224609.5341797,0,1.135498.2451172,1.6697998.7124023,1.6474609,0,.4897461-.1777344.7791748-.5117188.9128418-.2670898.1335449-.7568359.1781006-1.4916992.1781006-.7792969,0-1.2915039-.0667725-1.5805664-.1781006-.3339844-.133667-.4897461-.4230957-.4897461-.9128418v-3.8514404h-3.3173828Zm-3.3168945-3.7401123l.8681641-1.1575928c.4228516.3562012.8012695.8013916,1.1352539,1.2689209l-.2446289.37854h-4.1630859c1.0239258.6010742,1.5136719,1.2021484,1.5136719,1.8254395,0,.4898682-.2226562.7347412-.6679688.7347412-.355957,0-.5341797-.2226562-.6010742-.6456299-.1113281-.756958-.4672852-1.3580322-1.0239258-1.9145508h-.4677734c-.7788086,1.3580322-1.8251953,2.515625-3.1166992,3.4952393l-.355957-.3562012c1.4916992-1.513916,2.6044922-3.4284668,3.3168945-5.7883301,1.1801758.2226562,1.7587891.4453125,1.7587891.6901855,0,.1781006-.2670898.3116455-.8681641.4006348-.1557617.4230957-.3115234.7792969-.4453125,1.0686035h3.3618164Zm-2.1152344,4.2744141v2.8496094c1.0908203-.1781006,2.2041016-.4006348,3.3173828-.6455078l.0668945.4897461c-2.2485352.7568359-4.4306641,1.3356934-6.5678711,1.758667-.1113281.4675293-.2226562.7124023-.355957.7124023-.2670898,0-.5341797-.6010742-.8237305-1.758667.7792969-.0891113,1.8701172-.2004395,3.2724609-.4007568v-3.0054932h-2.6269531l-.1782227-.4897461h5.1875l.8457031-1.0018311c.4677734.4229736.8461914.8015137,1.1132812,1.1577148l-.2226562.3338623h-3.027832Zm10.6860352-4.2744141l.9350586-1.2243652c.4453125.4006348.8681641.8459473,1.269043,1.3356934l-.2226562.37854h-5.6547852c1.1577148.5565186,1.7143555,1.135376,1.7143555,1.7364502,0,.4451904-.2226562.6678467-.6455078.6678467-.3339844,0-.5341797-.1558838-.6010742-.4675293-.1337891-.756958-.5341797-1.380249-1.246582-1.9367676h-.3339844c-.6904297.9572754-1.4916992,1.7810059-2.4936523,2.4488525l-.3339844-.2894287c1.3359375-1.4025879,2.2709961-2.9831543,2.7607422-4.7641602,1.1132812.1781006,1.6694336.4007568,1.6694336.6678467,0,.1558838-.2670898.2894287-.7788086.4007568-.15625.4229736-.3339844.756958-.512207,1.0462646h4.4746094Zm-4.5415039,4.3413086c1.0908203.8236084,1.6474609,1.6251221,1.6474609,2.4488525,0,.4897461-.2226562.7346191-.6899414.7346191-.3120117,0-.512207-.244873-.512207-.8013916-.0224609-.7792969-.2895508-1.4693604-.7792969-2.1149902l.3339844-.2670898Z"/>
        <path class="cls-1" d="m107.11632,77.5244237c2.7602539-2.2930908,4.7641602-5.2762451,6.0332031-8.949585,1.2021484.4229736,1.8032227.756958,1.8032227,1.0240479,0,.1781006-.2670898.3116455-.8461914.4453125-1.0019531,2.0926514-2.0703125,3.7845459-3.2280273,5.0535889-.9125977.9794922-2.0258789,1.9367676-3.4282227,2.8273926l-.3339844-.4007568Zm3.25-1.0240479l-.1557617-.512085h9.2167969l.7568359-.8905029c.7792969.6010742,1.1801758,1.0018311,1.1801758,1.2021484,0,.0891113-.0668945.2004395-.2006836.2894287l-.4228516.3116455c-.0224609,3.9405518-.3339844,6.5007324-.9794922,7.6806641-.4228516.8013916-1.2246094,1.2021484-2.3374023,1.2021484,0-.4007568-.2675781-.6901855-.7573242-.8905029-.378418-.1558838-1.0908203-.3339844-2.1147461-.4897461v-.5343018c1.3359375.1781006,2.4042969.2670898,3.1391602.2670898.6899414,0,1.1577148-.4229736,1.3579102-1.2467041.3339844-1.4024658.512207-3.5396729.5341797-6.3892822h-4.7641602c-.2001953,2.4042969-.7568359,4.3411865-1.7143555,5.788208-1.0239258,1.5806885-2.6269531,2.8050537-4.8310547,3.7178955l-.2890851-.4453125c2.3374249-1.2467041,3.9404522-2.9831543,4.7417218-5.1203613.4453125-1.1799316.7124023-2.515625.8237305-3.9404297h-3.1835938Zm7.4580078-7.9255371c1.8476562,3.2280273,4.0961914,5.6324463,6.7456055,7.2131348-.4008789.2893066-.734375.6900635-1.0463867,1.2243652-1.9589844-1.5361328-3.5620117-3.3393555-4.7641602-5.3875732-.4453125-.7791748-.9350586-1.7142334-1.4467773-2.760498l.5117188-.2894287Z"/>
        <path class="cls-1" d="m133.5342887,72.1368504l.9121094-1.0463867c.4453125.3562012.8691406.756958,1.2470703,1.2022705l-.2001953.3562012h-6.3671875l-.2001953-.512085h4.6083984Zm-.6015625,2.515625l.8017346-1.0240479c.4004138.2894287.801781.6901855,1.2021716,1.1799316l-.2226562.3339844h-4.8535156l-.2001953-.4898682h3.2724609Zm.0224609,2.4934082l.7792737-1.001709c.4004138.3116455.801781.6900635,1.2021716,1.135376l-.2675781.378418h-4.7861328l-.2226562-.512085h3.2949219Zm.3339844,2.5603027l.6455078-.8015137c.7792969.6010742,1.1796875,1.0018311,1.1796875,1.2021484,0,.0667725-.0439453.1335449-.1552734.2004395l-.4228516.244873v5.4987793h-1.0908203v-1.2911377h-2.6494141v1.2911377h-1.1132812v-6.9459229c.1337891.0445557.5566406.2449951,1.2470703.6011963h2.359375Zm-.2666016-10.0849609l.8007812-1.0686035c.4013672.3338623.8017578.7346191,1.2246094,1.2021484l-.2001953.3562012h-4.8759766l-.2001953-.4897461h3.2509766Zm-2.2265625,10.5969238v4.0517578h2.6494141v-4.0517578h-2.6494141Zm10.6191406-.7124023c-.4677734.4675293-1.046875.9572754-1.6699219,1.4693604v3.1390381c.890625-.1558838,1.9150391-.4007568,3.0498047-.6901855l.1337891.4897461c-1.9589844.756958-3.7177734,1.2912598-5.3427734,1.6252441-.0673828.4451904-.2001953.6678467-.3339844.6678467-.2451172,0-.5117188-.5343018-.7568359-1.6251221.7568359-.0891113,1.46875-.1558838,2.1367188-.2672119v-2.6047363c-1.0234375.5566406-2.2480469,1.0018311-3.6503906,1.4025879l-.2451172-.4675293c2.1591797-.7346191,3.8955078-1.7810059,5.2089844-3.1390381h-4.6083984l-.2001953-.5119629h3.2285156v-1.6252441h-2.0927734l-.2001953-.4897461h2.2929688v-1.4693604h-2.5380859l-.1777344-.512085h2.7158203v-1.8699951c1.2246094.0889893,1.8476562.2672119,1.8476562.5343018,0,.1558838-.2675781.3339844-.7568359.4897461v.8459473h2.9609375v-1.9145508c1.2021484.0891113,1.8027344.2672119,1.8027344.512085,0,.1558838-.2441406.2894287-.7119141.4451904v.9572754h1.3134766l.7568359-.9127197c.3564453.3116455.6679688.6678467.9794922,1.0463867l-.2226562.378418h-2.8271484v1.4693604h1.0458984l.7792969-.9350586c.2226562.2004395.5566406.5566406.9794922,1.0240479l-.2226562.4007568h-2.5820312v1.6252441h1.7587891l.734375-.9350586c.4228516.378418.7568359.7124023,1.0019531,1.0462646l-.2226562.4007568h-4.7197266c.3339844.9128418.8242188,1.7364502,1.4248047,2.4934082.7128906-.6456299,1.3798828-1.380249,1.9589844-2.2039795.8681641.5565186,1.2910156.9350586,1.2910156,1.1575928,0,.1558838-.1552734.2004395-.4453125.2004395l-.4453125-.0445557c-.4892578.4007568-1.1347656.8237305-2.0253906,1.2689209.8232422.890625,2.0253906,1.6920166,3.6064453,2.3822021-.4003906.3562012-.7119141.7346191-.9345703,1.0686035-2.5830078-1.4471436-4.2744141-3.5397949-5.0097656-6.3226318h-.0664062Zm-5.9882812-6.1221924c1.4912109-.6678467,2.6708984-1.4915771,3.5390625-2.4711914.9794922.37854,1.4472656.6901855,1.4472656.8905029,0,.1781006-.2675781.2672119-.8232422.2672119h-.0224609c-1.1132812.7346191-2.4267578,1.2912598-3.8515625,1.6918945l-.2890625-.378418Zm4.9863281-3.2280273v-2.1149902c1.2470703.0222168,1.8701172.1558838,1.8701172.4229736,0,.1335449-.2451172.2894287-.734375.4675293v1.2244873h3.25l.9355234-1.1131592c.4228751.378418.8232657.8013916,1.179711,1.2467041l-.2001953.378418h-10.8203125l-.2441406-.5119629h4.7636719Zm-.9570312,5.2539062v1.4693604h2.9609375v-1.4693604h-2.9609375Zm0,1.9591064v1.6252441h2.9609375v-1.6252441h-2.9609375Zm2.9384766-6.3670654c1.4912109.2670898,2.6044922.623291,3.3613281,1.0686035.5566406.3338623.8242188.6456299.8242188.9794922,0,.37854-.2001953.5788574-.5791016.5788574-.15625,0-.3339844-.0889893-.4892578-.2670898-.8242188-.8237305-1.9375-1.4693604-3.3398438-1.9368896l.2226562-.4229736Z"/>
        <path class="cls-1" d="m155.8331169,74.4299413c0,.1557617-.2441406.3338623-.7783203.5343018v11.0866699h-1.1806641v-10.3074951c-.8232422,1.380249-1.6914062,2.6491699-2.6269531,3.7845459l-.4003906-.3116455c2.0927734-3.0721436,3.6728516-6.7678223,4.7636719-11.1312256,1.2919922.3338623,1.9375.6456299,1.9375.9350586,0,.1779785-.3115234.3116455-.9355469.4229736-.4667969,1.5583496-1.0683594,3.0499268-1.7802734,4.4969482.6669922.1113281,1.0009766.2672119,1.0009766.4898682Zm7.1240234,4.3634033v5.6992188h3.9404297l1.0244141-1.4693604c.4677734.4229736.9130859.9350586,1.3808594,1.5584717l-.2451172.4006348h-12.7119141l-.2451172-.4897461h5.6328125v-5.6992188h-4.3642578l-.2226562-.4897461h4.5869141v-4.8087158h-4.9208984l-.2216797-.512085h9.7949219l.9570312-1.3580322c.5566406.512085,1.0019531,1.0018311,1.3134766,1.4693604l-.2226562.4007568h-5.4765625v4.8087158h2.8056641l.9345703-1.3358154c.4677734.4453125.890625.9350586,1.2919922,1.4471436l-.2226562.378418h-4.8095703Zm-2.9609375-10.6860352c2.2265625,1.1131592,3.3623047,2.1817627,3.3623047,3.2503662,0,.5343018-.2451172.7791748-.7353516.7791748-.3330078,0-.5556641-.2670898-.734375-.7791748-.3115234-.9796143-1.0683594-1.9145508-2.1816406-2.8273926l.2890625-.4229736Z"/>
        <path class="cls-1" d="m181.8956169,71.31312v-3.2058105c1.3798828.0222168,2.0703125.1781006,2.0703125.4897461,0,.1558838-.3115234.3562012-.890625.5566406v2.1594238h6.1220703l.8457031-1.0240479c1.0019531.9350586,1.5146484,1.5361328,1.5146484,1.8255615,0,.1557617-.0898438.2225342-.2900391.244873l-.6679688.1113281c-.5341797.6678467-1.1347656,1.3579102-1.8916016,2.0258789l-.3789062-.2894287c.4003906-.756958.734375-1.5361328.9345703-2.3820801h-13.1572266v.378418c0,.9572754-.1777344,1.7364502-.4892578,2.3598633-.2890625.5343018-.6015625.8013916-1.0019531.8013916-.1777344,0-.3779297-.0889893-.5566406-.2670898-.1552734-.1335449-.2226562-.2894287-.2226562-.4675293,0-.2226562.1337891-.4453125.3789062-.7124023.734375-.7346191,1.1132812-1.892334,1.2246094-3.4284668l.5117188.0445557c.0664062.3339844.0888672.5788574.1113281.7791748h5.8330078Zm-.9580078,4.407959c-2.0029297.4898682-3.9404297.8905029-5.8320312,1.1799316l-.2675781-.4897461c4.4970703-.8682861,8.1484375-2.0480957,10.9091797-3.5620117,1.0009766.5788574,1.5136719,1.0018311,1.5136719,1.2467041,0,.1113281-.15625.1781006-.4228516.1781006-.2011719,0-.4453125-.0445557-.7128906-.0891113-1.3359375.4898682-2.671875.9128418-3.9853516,1.2468262v3.7399902l6.3232422-.8681641.9794922-1.5361328c.5566406.3562012,1.1347656.8015137,1.7587891,1.3356934l-.2226562.4230957-8.8388672,1.2021484v3.9182129c0,.3562012.1113281.5565186.3339844.6678467.2675781.0667725,1.2919922.1335449,3.0507812.1335449,1.7363281,0,2.7597656-.0667725,3.09375-.1781006.4677734-.1781006.8466797-1.2467041,1.046875-3.2058105l.5341797.244873c-.0224609.2672119-.0224609.5788574-.0224609.890625,0,.9127197.0888672,1.4915771.2226562,1.7141113.0888672.1781006.2890625.244873.6230469.244873-.0664062.7124023-.4228516,1.0909424-1.0683594,1.1799316-.6904297.1113281-2.0703125.1781006-4.0957031.1781006-2.5605469,0-4.0302734-.0889893-4.4082031-.3116455-.3564453-.2003174-.5126953-.623291-.5126953-1.2912598v-4.0072021l-6.8115234.9350586-.2675781-.5343018,7.0791016-.9572754v-3.6289062Z"/>
        <path class="cls-1" d="m213.1661247,68.040537l.6015625.6010742-17.2978516,17.2979736-.6015625-.6010742,17.2978516-17.2979736Z"/>
        <path class="cls-1" d="m236.0889762,75.0977879c-.3554688.3116455-.6679688.7124023-.9121094,1.2243652-3.4511719-1.6473389-6.1669922-3.8291016-8.1484375-6.5895996-.8017578,1.1575928-1.5136719,2.0703125-2.1367188,2.7382812-1.7373047,1.8254395-3.8964844,3.3615723-6.5458984,4.5415039l-.2666016-.4229736c2.5820312-1.4248047,4.7197266-3.2058105,6.3671875-5.3652344.6669922-.8905029,1.3574219-1.9591064,2.0703125-3.2058105,1.1132812.2894287,1.6689453.5787354,1.6689453.8459473,0,.1558838-.2666016.2670898-.8232422.378418,2.4931641,2.7160645,5.4101562,4.6751709,8.7265625,5.8551025Zm-8.5703125,5.3875732v4.0517578h5.03125l1.0908203-1.4025879c.5117188.4007568,1.0019531.9128418,1.4912109,1.513916l-.2226562.4007568h-15.6953125l-.2226562-.512085h7.3466797v-4.0517578h-4.8310547l-.2441406-.512085h5.0751953v-3.6955566h-4.9638672l-.1787109-.512085h9.1503906l.9794922-.9350586c.4453125.2894287.9345703.6456299,1.4023438,1.0463867l-.2451172.4007568h-4.9638672v3.6955566h2.8496094l.9794922-1.1799316c.3115234.2894287.7783203.7124023,1.3349609,1.3134766l-.2001953.37854h-4.9638672Z"/>
        <path class="cls-1" d="m249.7061637,74.8973485c1.0683594,0,1.9814453.3339844,2.7158203,1.0018311.9355469.8015137,1.4033203,1.892334,1.4033203,3.2503662,0,1.4025879-.4013672,2.5379639-1.2246094,3.40625-.8242188.8903809-1.9150391,1.3356934-3.2509766,1.3356934-1.6025391,0-2.8271484-.7346191-3.6503906-2.1594238-.6455078-1.0909424-.9794922-2.5603027-.9794922-4.3635254,0-2.2929688.4453125-4.1630859,1.3349609-5.6324463,1.046875-1.6696777,2.4052734-2.515625,4.0966797-2.515625.9570312,0,1.7363281.244873,2.3818359.6900635.5566406.4007568.8466797.890625.8466797,1.4471436,0,.756958-.3564453,1.135376-1.0908203,1.135376-.6904297,0-1.046875-.3562012-1.046875-1.0463867,0-.378418.1787109-.6900635.4677734-.9127197-.2890625-.4451904-.7792969-.6678467-1.5136719-.6678467-1.2246094,0-2.1816406.6678467-2.9394531,2.0480957-.6455078,1.2021484-.9794922,2.7828369-1.0009766,4.6973877.9570312-1.135376,2.1142578-1.7142334,3.4501953-1.7142334Zm-2.6044922,6.7456055c.5791016,1.0463867,1.3583984,1.6029053,2.2929688,1.6029053.890625,0,1.625-.4007568,2.1367188-1.1575928.5126953-.756958.7353516-1.7365723.7353516-2.9832764,0-.8459473-.1787109-1.5805664-.5341797-2.1594238-.5341797-.8682861-1.3359375-1.3134766-2.3828125-1.3134766-.5566406,0-1.1347656.1558838-1.7138672.5343018-.4003906.2670898-.7568359.6010742-1.0458984.9572754-.2226562.2670898-.3339844.4007568-.3339844.4453125,0,1.6918945.2890625,3.0499268.8457031,4.0739746Z"/>
        <path class="cls-1" d="m265.2159294,76.5003758c-.6015625,1.9145508-1.4472656,3.7623291-2.4941406,5.5209961l-.4667969-.3338623c1.3798828-2.5601807,2.3369141-5.4321289,2.9160156-8.682373h-2.5605469l-.1777344-.512085h2.7832031v-4.407959c1.3574219.0444336,2.0253906.2226562,2.0253906.5565186,0,.1781006-.3115234.3562012-.9121094.5343018v3.3171387h1.2021484l.8232422-1.135376c.4228516.4007568.7792969.8459473,1.1132812,1.3134766l-.2001953.3339844h-2.9384766v2.2261963c.8007812.512085,1.4023438,1.135376,1.8691406,1.8255615.3789062.5788574.6015625,1.0686035.6015625,1.4693604,0,.4675293-.2226562.7124023-.6904297.7124023-.2441406,0-.4003906-.1558838-.4667969-.4675293-.2011719-.9128418-.6015625-1.892334-1.3134766-2.8719482v10.1517334h-1.1132812v-9.5505371Zm9.7509766-3.0054932h2.7607422l.7568359-.8905029c.8007812.623291,1.2021484,1.0240479,1.2021484,1.2021484,0,.0891113-.0673828.1335449-.1787109.2226562l-.4667969.2894287v5.5878906h-1.1357422v-.8237305h-2.8271484c.0224609.0445557.0664062.0889893.1328125.1558838,1.4472656,1.8254395,3.3398438,3.272583,5.6777344,4.3634033-.3789062.3116455-.6679688.7124023-.890625,1.2021484-2.1152344-1.2911377-3.7851562-2.9385986-5.03125-4.9868164v6.2335205h-1.1132812v-5.4543457c-1.5361328,1.8701172-3.4726562,3.4730225-5.8330078,4.786499l-.3339844-.4229736c2.4716797-1.6251221,4.4306641-3.5842285,5.8994141-5.8773193h-2.5380859v1.0018311h-1.1347656v-7.3244629c.4892578.2449951.9121094.4898682,1.3134766.7347412h2.6269531v-2.1817627h-4.8535156l-.2001953-.4897461h5.0537109v-2.7382812c1.2685547.0222168,1.9140625.2003174,1.9140625.4451904,0,.1558838-.2666016.3562012-.8007812.5566406v1.7364502h3.40625l1.0009766-1.2467041c.5791016.5343018,1.0244141.9794922,1.2919922,1.3134766l-.2001953.4229736h-5.4990234v2.1817627Zm-1.1132812.4897461h-2.8056641v1.9591064h2.8056641v-1.9591064Zm0,2.4711914h-2.8056641v2.1148682h2.8056641v-2.1148682Zm1.1132812-2.4711914v1.9591064h2.9384766v-1.9591064h-2.9384766Zm0,2.4711914v2.1148682h2.9384766v-2.1148682h-2.9384766Z"/>
      </g>
    </g>
  </g>
</svg>